<svg width="588" height="146" viewBox="0 0 588 146" fill="none"
  xmlns="http://www.w3.org/2000/svg">
  <path d="M538.396 141.75C536.477 141.75 534.73 141.592 533.154 141.277C531.579 140.991 530.404 140.676 529.631 140.332L532.725 129.805C535.074 130.435 537.165 130.707 538.998 130.621C540.831 130.535 542.45 129.848 543.854 128.559C545.286 127.27 546.546 125.164 547.635 122.242L549.225 117.859L525.076 51H538.826L555.541 102.219H556.229L572.943 51H586.736L559.537 125.809C558.277 129.246 556.673 132.154 554.725 134.531C552.777 136.938 550.456 138.742 547.764 139.945C545.071 141.148 541.949 141.75 538.396 141.75Z" fill="white"/>
  <path d="M517.831 29V117H504.984V29H517.831Z" fill="white"/>
  <path d="M463.385 117V51H475.803V61.4844H476.491C477.694 57.9323 479.814 55.1393 482.85 53.1055C485.915 51.043 489.381 50.0117 493.248 50.0117C494.05 50.0117 494.996 50.0404 496.084 50.0977C497.202 50.1549 498.075 50.2266 498.705 50.3125V62.6016C498.19 62.4583 497.273 62.3008 495.955 62.1289C494.638 61.9284 493.32 61.8281 492.002 61.8281C488.966 61.8281 486.259 62.4727 483.881 63.7617C481.532 65.0221 479.67 66.7839 478.295 69.0469C476.92 71.2812 476.233 73.8307 476.233 76.6953V117H463.385Z" fill="white"/>
  <path d="M418.542 118.461C414.36 118.461 410.579 117.688 407.199 116.141C403.819 114.565 401.14 112.288 399.164 109.309C397.216 106.329 396.242 102.677 396.242 98.3516C396.242 94.6276 396.958 91.5625 398.39 89.1562C399.822 86.75 401.756 84.8451 404.191 83.4414C406.626 82.0378 409.347 80.9779 412.355 80.2617C415.363 79.5456 418.428 79.0013 421.55 78.6289C425.503 78.1706 428.712 77.7982 431.175 77.5117C433.639 77.1966 435.429 76.6953 436.546 76.0078C437.664 75.3203 438.222 74.2031 438.222 72.6562V72.3555C438.222 68.6029 437.162 65.6953 435.042 63.6328C432.951 61.5703 429.829 60.5391 425.675 60.5391C421.35 60.5391 417.941 61.4987 415.449 63.418C412.985 65.3086 411.281 67.4141 410.335 69.7344L398.261 66.9844C399.694 62.974 401.785 59.737 404.535 57.2734C407.313 54.7812 410.507 52.9766 414.117 51.8594C417.726 50.7135 421.522 50.1406 425.503 50.1406C428.139 50.1406 430.932 50.4557 433.882 51.0859C436.862 51.6875 439.64 52.8047 442.218 54.4375C444.825 56.0703 446.959 58.4049 448.621 61.4414C450.282 64.4492 451.113 68.3594 451.113 73.1719V117H438.566V107.977H438.05C437.22 109.638 435.973 111.271 434.312 112.875C432.651 114.479 430.516 115.811 427.91 116.871C425.303 117.931 422.181 118.461 418.542 118.461ZM421.335 108.148C424.888 108.148 427.924 107.447 430.445 106.043C432.994 104.639 434.928 102.806 436.246 100.543C437.592 98.2513 438.265 95.8021 438.265 93.1953V84.6875C437.807 85.1458 436.919 85.5755 435.601 85.9766C434.312 86.349 432.837 86.6784 431.175 86.9648C429.514 87.2227 427.895 87.4661 426.32 87.6953C424.744 87.8958 423.427 88.0677 422.367 88.2109C419.875 88.526 417.597 89.056 415.535 89.8008C413.501 90.5456 411.868 91.6198 410.636 93.0234C409.433 94.3984 408.832 96.2318 408.832 98.5234C408.832 101.703 410.006 104.109 412.355 105.742C414.704 107.346 417.697 108.148 421.335 108.148Z" fill="white"/>
  <path d="M332.3 117V29H387.471V40.4297H345.577V67.2422H384.593V78.6289H345.577V105.57H387.987V117H332.3Z" fill="white"/>
  <path d="M276.64 77.8125V117H263.792V51H276.124V61.7422H276.94C278.459 58.2474 280.836 55.4401 284.073 53.3203C287.339 51.2005 291.449 50.1406 296.405 50.1406C300.903 50.1406 304.841 51.0859 308.222 52.9766C311.602 54.8385 314.223 57.6172 316.085 61.3125C317.947 65.0078 318.878 69.5768 318.878 75.0195V117H306.03V76.5664C306.03 71.7826 304.784 68.0443 302.292 65.3516C299.8 62.6302 296.377 61.2695 292.022 61.2695C289.043 61.2695 286.393 61.9141 284.073 63.2031C281.781 64.4922 279.962 66.3828 278.616 68.875C277.298 71.3385 276.64 74.3177 276.64 77.8125Z" fill="white"/>
  <path d="M253.109 73C253.109 82.3958 251.391 90.474 247.953 97.2344C244.516 103.966 239.803 109.151 233.816 112.789C227.858 116.398 221.083 118.203 213.492 118.203C205.872 118.203 199.069 116.398 193.082 112.789C187.124 109.151 182.426 103.952 178.988 97.1914C175.551 90.431 173.832 82.3672 173.832 73C173.832 63.6042 175.551 55.5404 178.988 48.8086C182.426 42.0482 187.124 36.8633 193.082 33.2539C199.069 29.6159 205.872 27.7969 213.492 27.7969C221.083 27.7969 227.858 29.6159 233.816 33.2539C239.803 36.8633 244.516 42.0482 247.953 48.8086C251.391 55.5404 253.109 63.6042 253.109 73ZM239.961 73C239.961 65.8385 238.801 59.8086 236.48 54.9102C234.189 49.9831 231.038 46.2591 227.027 43.7383C223.046 41.1888 218.534 39.9141 213.492 39.9141C208.422 39.9141 203.896 41.1888 199.914 43.7383C195.932 46.2591 192.781 49.9831 190.461 54.9102C188.169 59.8086 187.023 65.8385 187.023 73C187.023 80.1615 188.169 86.2057 190.461 91.1328C192.781 96.0313 195.932 99.7552 199.914 102.305C203.896 104.826 208.422 106.086 213.492 106.086C218.534 106.086 223.046 104.826 227.027 102.305C231.038 99.7552 234.189 96.0313 236.48 91.1328C238.801 86.2057 239.961 80.1615 239.961 73Z" fill="white"/>
  <g clip-path="url(#clip0_2_597)">
    <path d="M76.12 73C75.62 73.55 75.12 74.08 74.6 74.6C74.08 75.12 73.55 75.62 73 76.12C72.45 75.62 71.92 75.12 71.4 74.6C70.88 74.08 70.38 73.55 69.88 73C70.86 71.91 71.91 70.86 73 69.88C73.55 70.38 74.08 70.88 74.6 71.4C75.12 71.92 75.62 72.45 76.12 73Z" fill="#FAE7F3"/>
    <path d="M73 76.12C70.06 78.78 66.75 81.06 63.16 82.84C64.95 79.24 67.22 75.94 69.88 73C70.38 73.55 70.88 74.08 71.4 74.6C71.92 75.12 72.45 75.62 73 76.12Z" fill="#F6DDB8"/>
    <path d="M82.84 82.84C79.24 81.05 75.94 78.78 73 76.12C73.55 75.62 74.08 75.12 74.6 74.6C75.12 74.08 75.62 73.55 76.12 73C78.78 75.94 81.06 79.25 82.84 82.84Z" fill="#E6E3EC"/>
    <path d="M82.84 63.16C81.05 66.76 78.78 70.06 76.12 73C75.62 72.45 75.12 71.92 74.6 71.4C74.08 70.88 73.55 70.38 73 69.88C75.94 67.22 79.25 64.94 82.84 63.16Z" fill="#E2D0F2"/>
    <path d="M73 69.88C71.91 70.86 70.86 71.91 69.88 73C67.22 70.06 64.94 66.75 63.16 63.16C66.76 64.95 70.06 67.22 73 69.88Z" fill="#F8B4E7"/>
    <path d="M69.88 73C67.22 75.94 64.94 79.25 63.16 82.84C57.3 85.76 50.7 87.4 43.7 87.4C31.63 87.4 20.71 82.51 12.8 74.6C12.28 74.08 11.78 73.55 11.28 73C19.28 64.15 30.84 58.6 43.7 58.6C50.69 58.6 57.3 60.24 63.16 63.16C64.95 66.76 67.22 70.06 69.88 73Z" fill="#F4946F"/>
    <path d="M63.16 82.84C60.24 88.7 58.6 95.3 58.6 102.3C58.6 114.37 63.49 125.29 71.4 133.2C71.92 133.72 72.45 134.22 73 134.72C65.25 141.73 54.97 146 43.7 146C31.63 146 20.71 141.11 12.8 133.2C4.88 125.29 0 114.37 0 102.3C0 91.03 4.27 80.75 11.28 73C11.78 73.55 12.28 74.08 12.8 74.6C20.71 82.52 31.63 87.4 43.7 87.4C50.69 87.4 57.3 85.76 63.16 82.84Z" fill="#CF7F1D"/>
    <path d="M87.4 102.3C87.4 114.37 82.51 125.29 74.6 133.2C74.08 133.72 73.55 134.22 73 134.72C72.45 134.22 71.92 133.72 71.4 133.2C63.48 125.29 58.6 114.37 58.6 102.3C58.6 95.31 60.24 88.7 63.16 82.84C66.76 81.05 70.06 78.78 73 76.12C75.94 78.78 79.25 81.06 82.84 82.84C85.76 88.7 87.4 95.3 87.4 102.3Z" fill="#D6D78F"/>
    <path d="M146 102.3C146 114.37 141.11 125.29 133.2 133.2C125.29 141.12 114.37 146 102.3 146C91.03 146 80.75 141.73 73 134.72C73.55 134.22 74.08 133.72 74.6 133.2C82.52 125.29 87.4 114.37 87.4 102.3C87.4 95.31 85.76 88.7 82.84 82.84C88.7 85.76 95.3 87.4 102.3 87.4C114.37 87.4 125.29 82.51 133.2 74.6C133.72 74.08 134.22 73.55 134.72 73C141.73 80.75 146 91.03 146 102.3Z" fill="#26AF81"/>
    <path d="M134.72 73C134.22 73.55 133.72 74.08 133.2 74.6C125.29 82.52 114.37 87.4 102.3 87.4C95.31 87.4 88.7 85.76 82.84 82.84C81.05 79.24 78.78 75.94 76.12 73C78.78 70.06 81.06 66.75 82.84 63.16C88.7 60.24 95.3 58.6 102.3 58.6C114.37 58.6 125.29 63.49 133.2 71.4C133.72 71.92 134.22 72.45 134.72 73Z" fill="#7DC7EA"/>
    <path d="M146 43.7C146 54.97 141.73 65.25 134.72 73C134.22 72.45 133.72 71.92 133.2 71.4C125.29 63.48 114.37 58.6 102.3 58.6C95.31 58.6 88.7 60.24 82.84 63.16C85.76 57.3 87.4 50.7 87.4 43.7C87.4 31.63 82.51 20.71 74.6 12.8C74.08 12.28 73.55 11.78 73 11.28C80.75 4.27 91.03 0 102.3 0C114.37 0 125.29 4.89 133.2 12.8C141.12 20.71 146 31.63 146 43.7Z" fill="#664CD4"/>
    <path d="M58.6 43.7C58.6 50.69 60.24 57.3 63.16 63.16C57.3 60.24 50.7 58.6 43.7 58.6C30.84 58.6 19.28 64.15 11.28 73C4.27 65.25 0 54.97 0 43.7C0 19.57 19.57 0 43.7 0C54.97 0 65.25 4.27 73 11.28C64.15 19.28 58.6 30.84 58.6 43.7Z" fill="#C5295D"/>
    <path d="M87.4 43.7C87.4 50.69 85.76 57.3 82.84 63.16C79.24 64.95 75.94 67.22 73 69.88C70.06 67.22 66.75 64.94 63.16 63.16C60.24 57.3 58.6 50.7 58.6 43.7C58.6 30.84 64.15 19.28 73 11.28C73.55 11.78 74.08 12.28 74.6 12.8C82.52 20.71 87.4 31.63 87.4 43.7Z" fill="#DC69E4"/>
  </g>
  <defs>
    <clipPath id="clip0_2_597">
      <rect width="146" height="146" fill="white"/>
    </clipPath>
  </defs>
</svg>
