<svg width="146" height="146" viewBox="0 0 146 146" fill="none"
  xmlns="http://www.w3.org/2000/svg">
  <g clip-path="url(#clip0_9_6694)">
    <path d="M76.12 73C75.62 73.55 75.12 74.08 74.6 74.6C74.08 75.12 73.55 75.62 73 76.12C72.45 75.62 71.92 75.12 71.4 74.6C70.88 74.08 70.38 73.55 69.88 73C70.86 71.91 71.91 70.86 73 69.88C73.55 70.38 74.08 70.88 74.6 71.4C75.12 71.92 75.62 72.45 76.12 73Z" fill="#FAE7F3"/>
    <path d="M73 76.12C70.06 78.78 66.75 81.06 63.16 82.84C64.95 79.24 67.22 75.94 69.88 73C70.38 73.55 70.88 74.08 71.4 74.6C71.92 75.12 72.45 75.62 73 76.12Z" fill="#F6DDB8"/>
    <path d="M82.84 82.84C79.24 81.05 75.94 78.78 73 76.12C73.55 75.62 74.08 75.12 74.6 74.6C75.12 74.08 75.62 73.55 76.12 73C78.78 75.94 81.06 79.25 82.84 82.84Z" fill="#E6E3EC"/>
    <path d="M82.84 63.16C81.05 66.76 78.78 70.06 76.12 73C75.62 72.45 75.12 71.92 74.6 71.4C74.08 70.88 73.55 70.38 73 69.88C75.94 67.22 79.25 64.94 82.84 63.16Z" fill="#E2D0F2"/>
    <path d="M73 69.88C71.91 70.86 70.86 71.91 69.88 73C67.22 70.06 64.94 66.75 63.16 63.16C66.76 64.95 70.06 67.22 73 69.88Z" fill="#F8B4E7"/>
    <path d="M69.88 73C67.22 75.94 64.94 79.25 63.16 82.84C57.3 85.76 50.7 87.4 43.7 87.4C31.63 87.4 20.71 82.51 12.8 74.6C12.28 74.08 11.78 73.55 11.28 73C19.28 64.15 30.84 58.6 43.7 58.6C50.69 58.6 57.3 60.24 63.16 63.16C64.95 66.76 67.22 70.06 69.88 73Z" fill="#F4946F"/>
    <path d="M63.16 82.84C60.24 88.7 58.6 95.3 58.6 102.3C58.6 114.37 63.49 125.29 71.4 133.2C71.92 133.72 72.45 134.22 73 134.72C65.25 141.73 54.97 146 43.7 146C31.63 146 20.71 141.11 12.8 133.2C4.88 125.29 0 114.37 0 102.3C0 91.03 4.27 80.75 11.28 73C11.78 73.55 12.28 74.08 12.8 74.6C20.71 82.52 31.63 87.4 43.7 87.4C50.69 87.4 57.3 85.76 63.16 82.84Z" fill="#CF7F1D"/>
    <path d="M87.4 102.3C87.4 114.37 82.51 125.29 74.6 133.2C74.08 133.72 73.55 134.22 73 134.72C72.45 134.22 71.92 133.72 71.4 133.2C63.48 125.29 58.6 114.37 58.6 102.3C58.6 95.31 60.24 88.7 63.16 82.84C66.76 81.05 70.06 78.78 73 76.12C75.94 78.78 79.25 81.06 82.84 82.84C85.76 88.7 87.4 95.3 87.4 102.3Z" fill="#D6D78F"/>
    <path d="M146 102.3C146 114.37 141.11 125.29 133.2 133.2C125.29 141.12 114.37 146 102.3 146C91.03 146 80.75 141.73 73 134.72C73.55 134.22 74.08 133.72 74.6 133.2C82.52 125.29 87.4 114.37 87.4 102.3C87.4 95.31 85.76 88.7 82.84 82.84C88.7 85.76 95.3 87.4 102.3 87.4C114.37 87.4 125.29 82.51 133.2 74.6C133.72 74.08 134.22 73.55 134.72 73C141.73 80.75 146 91.03 146 102.3Z" fill="#26AF81"/>
    <path d="M134.72 73C134.22 73.55 133.72 74.08 133.2 74.6C125.29 82.52 114.37 87.4 102.3 87.4C95.31 87.4 88.7 85.76 82.84 82.84C81.05 79.24 78.78 75.94 76.12 73C78.78 70.06 81.06 66.75 82.84 63.16C88.7 60.24 95.3 58.6 102.3 58.6C114.37 58.6 125.29 63.49 133.2 71.4C133.72 71.92 134.22 72.45 134.72 73Z" fill="#7DC7EA"/>
    <path d="M146 43.7C146 54.97 141.73 65.25 134.72 73C134.22 72.45 133.72 71.92 133.2 71.4C125.29 63.48 114.37 58.6 102.3 58.6C95.31 58.6 88.7 60.24 82.84 63.16C85.76 57.3 87.4 50.7 87.4 43.7C87.4 31.63 82.51 20.71 74.6 12.8C74.08 12.28 73.55 11.78 73 11.28C80.75 4.27 91.03 0 102.3 0C114.37 0 125.29 4.89 133.2 12.8C141.12 20.71 146 31.63 146 43.7Z" fill="#664CD4"/>
    <path d="M58.6 43.7C58.6 50.69 60.24 57.3 63.16 63.16C57.3 60.24 50.7 58.6 43.7 58.6C30.84 58.6 19.28 64.15 11.28 73C4.27 65.25 0 54.97 0 43.7C0 19.57 19.57 0 43.7 0C54.97 0 65.25 4.27 73 11.28C64.15 19.28 58.6 30.84 58.6 43.7Z" fill="#C5295D"/>
    <path d="M87.4 43.7C87.4 50.69 85.76 57.3 82.84 63.16C79.24 64.95 75.94 67.22 73 69.88C70.06 67.22 66.75 64.94 63.16 63.16C60.24 57.3 58.6 50.7 58.6 43.7C58.6 30.84 64.15 19.28 73 11.28C73.55 11.78 74.08 12.28 74.6 12.8C82.52 20.71 87.4 31.63 87.4 43.7Z" fill="#DC69E4"/>
  </g>
  <defs>
    <clipPath id="clip0_9_6694">
      <rect width="146" height="146" fill="white"/>
    </clipPath>
  </defs>
</svg>
