<svg width="588" height="146" viewBox="0 0 588 146" fill="none"
  xmlns="http://www.w3.org/2000/svg">
  <path d="M538.396 141.75C536.477 141.75 534.73 141.592 533.154 141.277C531.579 140.991 530.404 140.676 529.631 140.332L532.725 129.805C535.074 130.435 537.165 130.707 538.998 130.621C540.831 130.535 542.45 129.848 543.854 128.559C545.286 127.27 546.546 125.164 547.635 122.242L549.225 117.859L525.076 51H538.826L555.541 102.219H556.229L572.943 51H586.736L559.537 125.809C558.277 129.246 556.673 132.154 554.725 134.531C552.777 136.938 550.456 138.742 547.764 139.945C545.071 141.148 541.949 141.75 538.396 141.75Z" fill="#0D0D0D"/>
  <path d="M517.831 29V117H504.984V29H517.831Z" fill="#0D0D0D"/>
  <path d="M463.385 117V51H475.803V61.4844H476.491C477.694 57.9323 479.814 55.1393 482.85 53.1055C485.915 51.043 489.381 50.0117 493.248 50.0117C494.05 50.0117 494.996 50.0404 496.084 50.0977C497.202 50.1549 498.075 50.2266 498.705 50.3125V62.6016C498.19 62.4583 497.273 62.3008 495.955 62.1289C494.638 61.9284 493.32 61.8281 492.002 61.8281C488.966 61.8281 486.259 62.4727 483.881 63.7617C481.532 65.0221 479.67 66.7839 478.295 69.0469C476.92 71.2812 476.233 73.8307 476.233 76.6953V117H463.385Z" fill="#0D0D0D"/>
  <path d="M418.542 118.461C414.36 118.461 410.579 117.688 407.199 116.141C403.819 114.565 401.14 112.288 399.164 109.309C397.216 106.329 396.242 102.677 396.242 98.3516C396.242 94.6276 396.958 91.5625 398.39 89.1562C399.822 86.75 401.756 84.8451 404.191 83.4414C406.626 82.0378 409.347 80.9779 412.355 80.2617C415.363 79.5456 418.428 79.0013 421.55 78.6289C425.503 78.1706 428.712 77.7982 431.175 77.5117C433.639 77.1966 435.429 76.6953 436.546 76.0078C437.664 75.3203 438.222 74.2031 438.222 72.6562V72.3555C438.222 68.6029 437.162 65.6953 435.042 63.6328C432.951 61.5703 429.829 60.5391 425.675 60.5391C421.35 60.5391 417.941 61.4987 415.449 63.418C412.985 65.3086 411.281 67.4141 410.335 69.7344L398.261 66.9844C399.694 62.974 401.785 59.737 404.535 57.2734C407.313 54.7812 410.507 52.9766 414.117 51.8594C417.726 50.7135 421.522 50.1406 425.503 50.1406C428.139 50.1406 430.932 50.4557 433.882 51.0859C436.862 51.6875 439.64 52.8047 442.218 54.4375C444.825 56.0703 446.959 58.4049 448.621 61.4414C450.282 64.4492 451.113 68.3594 451.113 73.1719V117H438.566V107.977H438.05C437.22 109.638 435.973 111.271 434.312 112.875C432.651 114.479 430.516 115.811 427.91 116.871C425.303 117.931 422.181 118.461 418.542 118.461ZM421.335 108.148C424.888 108.148 427.924 107.447 430.445 106.043C432.994 104.639 434.928 102.806 436.246 100.543C437.592 98.2513 438.265 95.8021 438.265 93.1953V84.6875C437.807 85.1458 436.919 85.5755 435.601 85.9766C434.312 86.349 432.837 86.6784 431.175 86.9648C429.514 87.2227 427.895 87.4661 426.32 87.6953C424.744 87.8958 423.427 88.0677 422.367 88.2109C419.875 88.526 417.597 89.056 415.535 89.8008C413.501 90.5456 411.868 91.6198 410.636 93.0234C409.433 94.3984 408.832 96.2318 408.832 98.5234C408.832 101.703 410.006 104.109 412.355 105.742C414.704 107.346 417.697 108.148 421.335 108.148Z" fill="#0D0D0D"/>
  <path d="M332.3 117V29H387.471V40.4297H345.577V67.2422H384.593V78.6289H345.577V105.57H387.987V117H332.3Z" fill="#0D0D0D"/>
  <path d="M276.64 77.8125V117H263.792V51H276.124V61.7422H276.94C278.459 58.2474 280.836 55.4401 284.073 53.3203C287.339 51.2005 291.449 50.1406 296.405 50.1406C300.903 50.1406 304.841 51.0859 308.222 52.9766C311.602 54.8385 314.223 57.6172 316.085 61.3125C317.947 65.0078 318.878 69.5768 318.878 75.0195V117H306.03V76.5664C306.03 71.7826 304.784 68.0443 302.292 65.3516C299.8 62.6302 296.377 61.2695 292.022 61.2695C289.043 61.2695 286.393 61.9141 284.073 63.2031C281.781 64.4922 279.962 66.3828 278.616 68.875C277.298 71.3385 276.64 74.3177 276.64 77.8125Z" fill="#0D0D0D"/>
  <path d="M253.109 73C253.109 82.3958 251.391 90.474 247.953 97.2344C244.516 103.966 239.803 109.151 233.816 112.789C227.858 116.398 221.083 118.203 213.492 118.203C205.872 118.203 199.069 116.398 193.082 112.789C187.124 109.151 182.426 103.952 178.988 97.1914C175.551 90.431 173.832 82.3672 173.832 73C173.832 63.6042 175.551 55.5404 178.988 48.8086C182.426 42.0482 187.124 36.8633 193.082 33.2539C199.069 29.6159 205.872 27.7969 213.492 27.7969C221.083 27.7969 227.858 29.6159 233.816 33.2539C239.803 36.8633 244.516 42.0482 247.953 48.8086C251.391 55.5404 253.109 63.6042 253.109 73ZM239.961 73C239.961 65.8385 238.801 59.8086 236.48 54.9102C234.189 49.9831 231.038 46.2591 227.027 43.7383C223.046 41.1888 218.534 39.9141 213.492 39.9141C208.422 39.9141 203.896 41.1888 199.914 43.7383C195.932 46.2591 192.781 49.9831 190.461 54.9102C188.169 59.8086 187.023 65.8385 187.023 73C187.023 80.1615 188.169 86.2057 190.461 91.1328C192.781 96.0313 195.932 99.7552 199.914 102.305C203.896 104.826 208.422 106.086 213.492 106.086C218.534 106.086 223.046 104.826 227.027 102.305C231.038 99.7552 234.189 96.0313 236.48 91.1328C238.801 86.2057 239.961 80.1615 239.961 73Z" fill="#0D0D0D"/>
  <path d="M76.1186 73C75.622 73.5462 75.1155 74.0826 74.599 74.599C74.0826 75.1155 73.5462 75.622 73 76.1186C72.4537 75.622 71.9174 75.1155 71.4009 74.599C70.8845 74.0826 70.3779 73.5462 69.8813 73C70.8646 71.9075 71.9075 70.8646 73 69.8813C73.5462 70.3779 74.0826 70.8845 74.599 71.4009C75.1155 71.9174 75.622 72.4537 76.1186 73Z" fill="#1E121D"/>
  <path d="M72.9999 76.1186C70.0601 78.7804 66.7527 81.0548 63.1573 82.8426C64.9451 79.2472 67.2195 75.9399 69.8813 73C70.3779 73.5463 70.8844 74.0826 71.4009 74.599C71.9173 75.1155 72.4537 75.622 72.9999 76.1186Z" fill="#452D1F"/>
  <path d="M82.8426 82.8426C79.2472 81.0548 75.9399 78.7804 73 76.1186C73.5463 75.622 74.0826 75.1155 74.599 74.599C75.1155 74.0826 75.622 73.5463 76.1186 73C78.7804 75.9399 81.0548 79.2472 82.8426 82.8426Z" fill="#22423D"/>
  <path d="M82.8426 63.1574C81.0548 66.7528 78.7804 70.0601 76.1186 73C75.622 72.4537 75.1155 71.9174 74.599 71.4009C74.0826 70.8845 73.5463 70.378 73 69.8814C75.9399 67.2196 79.2472 64.9452 82.8426 63.1574Z" fill="#1E1649"/>
  <path d="M72.9999 69.8814C71.9074 70.8646 70.8646 71.9075 69.8813 73C67.2195 70.0601 64.9451 66.7528 63.1573 63.1574C66.7527 64.9452 70.0601 67.2196 72.9999 69.8814Z" fill="#5E142A"/>
  <path d="M69.8813 73C67.2196 75.9399 64.9452 79.2472 63.1574 82.8426C57.2975 85.7626 50.6928 87.4014 43.7007 87.4014C31.6333 87.4014 20.7082 82.5148 12.8023 74.599C12.2858 74.0826 11.7793 73.5462 11.2827 73C19.278 64.1506 30.8388 58.5986 43.7007 58.5986C50.6928 58.5986 57.2975 60.2374 63.1574 63.1574C64.9452 66.7528 67.2196 70.0601 69.8813 73Z" fill="#D6322C"/>
  <path d="M63.1574 82.8426C60.2374 88.7025 58.5986 95.3072 58.5986 102.299C58.5986 114.367 63.4852 125.292 71.4009 133.198C71.9174 133.714 72.4537 134.221 73 134.717C65.2531 141.729 54.9735 146 43.7007 146C31.6333 146 20.7082 141.113 12.8023 133.198C4.88653 125.292 0 114.367 0 102.299C0 91.0265 4.27075 80.7469 11.2827 73C11.7793 73.5463 12.2858 74.0826 12.8023 74.599C20.7082 82.5148 31.6333 87.4014 43.7007 87.4014C50.6928 87.4014 57.2975 85.7626 63.1574 82.8426Z" fill="#F0BB5C"/>
  <path d="M87.4014 102.299C87.4014 114.367 82.5148 125.292 74.599 133.198C74.0826 133.714 73.5462 134.221 73 134.717C72.4537 134.221 71.9174 133.714 71.4009 133.198C63.4852 125.292 58.5986 114.367 58.5986 102.299C58.5986 95.3072 60.2374 88.7025 63.1574 82.8426C66.7528 81.0548 70.0601 78.7804 73 76.1187C75.9399 78.7804 79.2472 81.0548 82.8426 82.8426C85.7626 88.7025 87.4014 95.3072 87.4014 102.299Z" fill="#4DA641"/>
  <path d="M146 102.299C146 114.367 141.113 125.292 133.198 133.198C125.292 141.113 114.367 146 102.299 146C91.0265 146 80.7469 141.729 73 134.717C73.5463 134.221 74.0826 133.714 74.599 133.198C82.5148 125.292 87.4014 114.367 87.4014 102.299C87.4014 95.3072 85.7626 88.7025 82.8426 82.8426C88.7025 85.7626 95.3072 87.4014 102.299 87.4014C114.367 87.4014 125.292 82.5148 133.198 74.599C133.714 74.0826 134.221 73.5463 134.717 73C141.729 80.7469 146 91.0265 146 102.299Z" fill="#4DCFA3"/>
  <path d="M134.717 73C134.221 73.5462 133.714 74.0826 133.198 74.599C125.292 82.5148 114.367 87.4014 102.299 87.4014C95.3072 87.4014 88.7025 85.7626 82.8426 82.8426C81.0548 79.2472 78.7804 75.9399 76.1187 73C78.7804 70.0601 81.0548 66.7528 82.8426 63.1574C88.7025 60.2374 95.3072 58.5986 102.299 58.5986C114.367 58.5986 125.292 63.4852 133.198 71.4009C133.714 71.9174 134.221 72.4537 134.717 73Z" fill="#22529A"/>
  <path d="M146 43.7007C146 54.9735 141.729 65.2531 134.717 73C134.221 72.4537 133.714 71.9174 133.198 71.4009C125.292 63.4852 114.367 58.5986 102.299 58.5986C95.3072 58.5986 88.7025 60.2374 82.8426 63.1574C85.7626 57.2975 87.4014 50.6928 87.4014 43.7007C87.4014 31.6333 82.5148 20.7082 74.599 12.8023C74.0826 12.2858 73.5463 11.7793 73 11.2827C80.7469 4.27075 91.0265 0 102.299 0C114.367 0 125.292 4.88653 133.198 12.8023C141.113 20.7082 146 31.6333 146 43.7007Z" fill="#695CD8"/>
  <path d="M58.5986 43.7007C58.5986 50.6928 60.2374 57.2975 63.1574 63.1574C57.2975 60.2374 50.6928 58.5986 43.7007 58.5986C30.8388 58.5986 19.278 64.1506 11.2827 73C4.27075 65.2531 0 54.9735 0 43.7007C0 19.566 19.566 0 43.7007 0C54.9735 0 65.2531 4.27075 73 11.2827C64.1506 19.278 58.5986 30.8388 58.5986 43.7007Z" fill="#D63E6D"/>
  <path d="M87.4014 43.7007C87.4014 50.6928 85.7626 57.2975 82.8426 63.1574C79.2472 64.9452 75.9399 67.2196 73 69.8813C70.0601 67.2196 66.7528 64.9452 63.1574 63.1574C60.2374 57.2975 58.5986 50.6928 58.5986 43.7007C58.5986 30.8388 64.1506 19.278 73 11.2827C73.5462 11.7793 74.0826 12.2858 74.599 12.8023C82.5148 20.7082 87.4014 31.6333 87.4014 43.7007Z" fill="#5E1967"/>
</svg>
