<svg width="588" height="147" viewBox="0 0 588 147" fill="none"
  xmlns="http://www.w3.org/2000/svg">
  <path d="M538.396 141.75C536.477 141.75 534.73 141.592 533.154 141.277C531.579 140.991 530.404 140.676 529.631 140.332L532.725 129.805C535.074 130.435 537.165 130.707 538.998 130.621C540.831 130.535 542.45 129.848 543.854 128.559C545.286 127.27 546.546 125.164 547.635 122.242L549.225 117.859L525.076 51H538.826L555.541 102.219H556.229L572.943 51H586.736L559.537 125.809C558.277 129.246 556.673 132.154 554.725 134.531C552.777 136.938 550.456 138.742 547.764 139.945C545.071 141.148 541.949 141.75 538.396 141.75Z" fill="currentColor"/>
  <path d="M517.831 29V117H504.984V29H517.831Z" fill="currentColor"/>
  <path d="M463.385 117V51H475.803V61.4844H476.491C477.694 57.9323 479.814 55.1393 482.85 53.1055C485.915 51.043 489.381 50.0117 493.248 50.0117C494.05 50.0117 494.996 50.0404 496.084 50.0977C497.202 50.1549 498.075 50.2266 498.705 50.3125V62.6016C498.19 62.4583 497.273 62.3008 495.955 62.1289C494.638 61.9284 493.32 61.8281 492.002 61.8281C488.966 61.8281 486.259 62.4727 483.881 63.7617C481.532 65.0221 479.67 66.7839 478.295 69.0469C476.92 71.2812 476.233 73.8307 476.233 76.6953V117H463.385Z" fill="currentColor"/>
  <path d="M418.542 118.461C414.36 118.461 410.579 117.688 407.199 116.141C403.819 114.565 401.14 112.288 399.164 109.309C397.216 106.329 396.242 102.677 396.242 98.3516C396.242 94.6276 396.958 91.5625 398.39 89.1562C399.822 86.75 401.756 84.8451 404.191 83.4414C406.626 82.0378 409.347 80.9779 412.355 80.2617C415.363 79.5456 418.428 79.0013 421.55 78.6289C425.503 78.1706 428.712 77.7982 431.175 77.5117C433.639 77.1966 435.429 76.6953 436.546 76.0078C437.664 75.3203 438.222 74.2031 438.222 72.6562V72.3555C438.222 68.6029 437.162 65.6953 435.042 63.6328C432.951 61.5703 429.829 60.5391 425.675 60.5391C421.35 60.5391 417.941 61.4987 415.449 63.418C412.985 65.3086 411.281 67.4141 410.335 69.7344L398.261 66.9844C399.694 62.974 401.785 59.737 404.535 57.2734C407.313 54.7812 410.507 52.9766 414.117 51.8594C417.726 50.7135 421.522 50.1406 425.503 50.1406C428.139 50.1406 430.932 50.4557 433.882 51.0859C436.862 51.6875 439.64 52.8047 442.218 54.4375C444.825 56.0703 446.959 58.4049 448.621 61.4414C450.282 64.4492 451.113 68.3594 451.113 73.1719V117H438.566V107.977H438.05C437.22 109.638 435.973 111.271 434.312 112.875C432.651 114.479 430.516 115.811 427.91 116.871C425.303 117.931 422.181 118.461 418.542 118.461ZM421.335 108.148C424.888 108.148 427.924 107.447 430.445 106.043C432.994 104.639 434.928 102.806 436.246 100.543C437.592 98.2513 438.265 95.8021 438.265 93.1953V84.6875C437.807 85.1458 436.919 85.5755 435.601 85.9766C434.312 86.349 432.837 86.6784 431.175 86.9648C429.514 87.2227 427.895 87.4661 426.32 87.6953C424.744 87.8958 423.427 88.0677 422.367 88.2109C419.875 88.526 417.597 89.056 415.535 89.8008C413.501 90.5456 411.868 91.6198 410.636 93.0234C409.433 94.3984 408.832 96.2318 408.832 98.5234C408.832 101.703 410.006 104.109 412.355 105.742C414.704 107.346 417.697 108.148 421.335 108.148Z" fill="currentColor"/>
  <path d="M332.3 117V29H387.471V40.4297H345.577V67.2422H384.593V78.6289H345.577V105.57H387.987V117H332.3Z" fill="currentColor"/>
  <path d="M276.64 77.8125V117H263.792V51H276.124V61.7422H276.94C278.459 58.2474 280.836 55.4401 284.073 53.3203C287.339 51.2005 291.449 50.1406 296.405 50.1406C300.903 50.1406 304.841 51.0859 308.222 52.9766C311.602 54.8385 314.223 57.6172 316.085 61.3125C317.947 65.0078 318.878 69.5768 318.878 75.0195V117H306.03V76.5664C306.03 71.7826 304.784 68.0443 302.292 65.3516C299.8 62.6302 296.377 61.2695 292.022 61.2695C289.043 61.2695 286.393 61.9141 284.073 63.2031C281.781 64.4922 279.962 66.3828 278.616 68.875C277.298 71.3385 276.64 74.3177 276.64 77.8125Z" fill="currentColor"/>
  <path d="M253.109 73C253.109 82.3958 251.391 90.474 247.953 97.2344C244.516 103.966 239.803 109.151 233.816 112.789C227.858 116.398 221.083 118.203 213.492 118.203C205.872 118.203 199.069 116.398 193.082 112.789C187.124 109.151 182.426 103.952 178.988 97.1914C175.551 90.431 173.832 82.3672 173.832 73C173.832 63.6042 175.551 55.5404 178.988 48.8086C182.426 42.0482 187.124 36.8633 193.082 33.2539C199.069 29.6159 205.872 27.7969 213.492 27.7969C221.083 27.7969 227.858 29.6159 233.816 33.2539C239.803 36.8633 244.516 42.0482 247.953 48.8086C251.391 55.5404 253.109 63.6042 253.109 73ZM239.961 73C239.961 65.8385 238.801 59.8086 236.48 54.9102C234.189 49.9831 231.038 46.2591 227.027 43.7383C223.046 41.1888 218.534 39.9141 213.492 39.9141C208.422 39.9141 203.896 41.1888 199.914 43.7383C195.932 46.2591 192.781 49.9831 190.461 54.9102C188.169 59.8086 187.023 65.8385 187.023 73C187.023 80.1615 188.169 86.2057 190.461 91.1328C192.781 96.0313 195.932 99.7552 199.914 102.305C203.896 104.826 208.422 106.086 213.492 106.086C218.534 106.086 223.046 104.826 227.027 102.305C231.038 99.7552 234.189 96.0313 236.48 91.1328C238.801 86.2057 239.961 80.1615 239.961 73Z" fill="currentColor"/>
  <path fill-rule="evenodd" clip-rule="evenodd" d="M66.3361 73.5C60.1291 78.2071 52.3907 81.0001 43.9999 81.0001C35.6092 81.0001 27.8709 78.2071 21.6638 73.5001C27.8709 68.793 35.6093 66 44 66C52.3907 66 60.1291 68.793 66.3361 73.5ZM43.9999 88.0001C51.0388 88.0001 57.6917 86.3472 63.5915 83.4085C60.6528 89.3083 59 95.9611 59 103C59 113.43 62.6293 123.013 68.694 130.554C62.1447 136.428 53.4896 140 44 140C23.5655 140 7 123.435 7 103C7 93.5105 10.5724 84.8553 16.4457 78.3061C23.9868 84.3708 33.5696 88.0001 43.9999 88.0001ZM66 103C66 94.6093 68.793 86.8709 73.5 80.6639C78.207 86.8709 81 94.6093 81 103C81 111.391 78.207 119.129 73.5 125.336C68.793 119.129 66 111.391 66 103ZM44 147C55.3498 147 65.6959 142.703 73.5 135.646C81.3041 142.703 91.6502 147 103 147C127.301 147 147 127.301 147 103C147 91.6502 142.703 81.304 135.646 73.5C142.703 65.6959 147 55.3498 147 44C147 19.6994 127.3 -2.17557e-05 103 -2.17557e-05C91.6502 -2.17557e-05 81.3041 4.29731 73.5 11.3537C65.6959 4.29728 55.3498 -6.75321e-05 43.9999 -6.75321e-05C19.6994 -6.75321e-05 -0.00012207 19.6994 -0.00012207 44C-0.00012207 55.3498 4.29724 65.696 11.3536 73.5001C4.29731 81.3041 0 91.6502 0 103C0 127.301 19.6995 147 44 147ZM68.694 16.4458C62.1447 10.5724 53.4895 6.99993 43.9999 6.99993C23.5654 6.99993 6.99988 23.5654 6.99988 44C6.99988 53.4896 10.5723 62.1448 16.4457 68.694C23.9868 62.6293 33.5696 59 44 59C51.0389 59 57.6917 60.6528 63.5916 63.5916C60.6528 57.6917 59 51.0389 59 44C59 33.5696 62.6293 23.9869 68.694 16.4458ZM73.5 66.3361C68.793 60.129 66 52.3907 66 44C66 35.6093 68.793 27.8709 73.5 21.6639C78.207 27.8709 81 35.6093 81 44C81 52.3907 78.207 60.129 73.5 66.3361ZM83.4084 83.4084C86.3472 89.3082 88 95.9611 88 103C88 113.43 84.3707 123.013 78.306 130.554C84.8553 136.428 93.5104 140 103 140C123.435 140 140 123.435 140 103C140 93.5104 136.428 84.8552 130.554 78.306C123.013 84.3706 113.43 87.9999 103 87.9999C95.9611 87.9999 89.3083 86.3471 83.4084 83.4084ZM125.336 73.5C119.129 78.207 111.391 80.9999 103 80.9999C94.6093 80.9999 86.871 78.207 80.6639 73.5C86.871 68.793 94.6093 66 103 66C111.391 66 119.129 68.793 125.336 73.5ZM130.554 68.6939C123.013 62.6293 113.43 59 103 59C95.9611 59 89.3083 60.6528 83.4084 63.5916C86.3472 57.6917 88 51.0389 88 44C88 33.5696 84.3707 23.9869 78.306 16.4458C84.8553 10.5724 93.5104 6.99998 103 6.99998C123.435 6.99998 140 23.5654 140 44C140 53.4895 136.428 62.1447 130.554 68.6939Z" fill="currentColor"/>
</svg>
