<svg width="146" height="146" viewBox="0 0 146 146" fill="none"
  xmlns="http://www.w3.org/2000/svg">
  <path d="M76.1186 73C75.622 73.5462 75.1155 74.0826 74.599 74.599C74.0826 75.1155 73.5462 75.622 73 76.1186C72.4537 75.622 71.9174 75.1155 71.4009 74.599C70.8845 74.0826 70.3779 73.5462 69.8813 73C70.8646 71.9075 71.9075 70.8646 73 69.8813C73.5462 70.3779 74.0826 70.8845 74.599 71.4009C75.1155 71.9174 75.622 72.4537 76.1186 73Z" fill="#1E121D"/>
  <path d="M72.9999 76.1186C70.0601 78.7804 66.7527 81.0548 63.1573 82.8426C64.9451 79.2472 67.2195 75.9399 69.8813 73C70.3779 73.5463 70.8844 74.0826 71.4009 74.599C71.9173 75.1155 72.4537 75.622 72.9999 76.1186Z" fill="#452D1F"/>
  <path d="M82.8426 82.8426C79.2472 81.0548 75.9399 78.7804 73 76.1186C73.5463 75.622 74.0826 75.1155 74.599 74.599C75.1155 74.0826 75.622 73.5463 76.1186 73C78.7804 75.9399 81.0548 79.2472 82.8426 82.8426Z" fill="#22423D"/>
  <path d="M82.8426 63.1574C81.0548 66.7528 78.7804 70.0601 76.1186 73C75.622 72.4537 75.1155 71.9174 74.599 71.4009C74.0826 70.8845 73.5463 70.378 73 69.8814C75.9399 67.2196 79.2472 64.9452 82.8426 63.1574Z" fill="#1E1649"/>
  <path d="M72.9999 69.8814C71.9074 70.8646 70.8646 71.9075 69.8813 73C67.2195 70.0601 64.9451 66.7528 63.1573 63.1574C66.7527 64.9452 70.0601 67.2196 72.9999 69.8814Z" fill="#5E142A"/>
  <path d="M69.8814 73C67.2196 75.9399 64.9452 79.2472 63.1574 82.8426C57.2975 85.7626 50.6928 87.4014 43.7007 87.4014C31.6333 87.4014 20.7082 82.5148 12.8023 74.599C12.2858 74.0826 11.7793 73.5463 11.2827 73C19.278 64.1506 30.8388 58.5986 43.7007 58.5986C50.6928 58.5986 57.2975 60.2374 63.1574 63.1574C64.9452 66.7528 67.2196 70.0601 69.8814 73Z" fill="#D6322C"/>
  <path d="M63.1574 82.8426C60.2374 88.7025 58.5986 95.3072 58.5986 102.299C58.5986 114.367 63.4852 125.292 71.4009 133.198C71.9174 133.714 72.4537 134.221 73 134.717C65.2531 141.729 54.9735 146 43.7007 146C31.6333 146 20.7082 141.113 12.8023 133.198C4.88653 125.292 0 114.367 0 102.299C0 91.0265 4.27075 80.7469 11.2827 73C11.7793 73.5463 12.2858 74.0826 12.8023 74.599C20.7082 82.5148 31.6333 87.4014 43.7007 87.4014C50.6928 87.4014 57.2975 85.7626 63.1574 82.8426Z" fill="#F0BB5C"/>
  <path d="M87.4014 102.299C87.4014 114.367 82.5148 125.292 74.599 133.198C74.0826 133.714 73.5463 134.221 73 134.717C72.4537 134.221 71.9174 133.714 71.4009 133.198C63.4852 125.292 58.5986 114.367 58.5986 102.299C58.5986 95.3072 60.2374 88.7025 63.1574 82.8426C66.7528 81.0548 70.0601 78.7804 73 76.1187C75.9399 78.7804 79.2472 81.0548 82.8426 82.8426C85.7626 88.7025 87.4014 95.3072 87.4014 102.299Z" fill="#4DA641"/>
  <path d="M146 102.299C146 114.367 141.113 125.292 133.198 133.198C125.292 141.113 114.367 146 102.299 146C91.0265 146 80.7469 141.729 73 134.717C73.5463 134.221 74.0826 133.714 74.599 133.198C82.5148 125.292 87.4014 114.367 87.4014 102.299C87.4014 95.3072 85.7626 88.7025 82.8426 82.8426C88.7025 85.7626 95.3072 87.4014 102.299 87.4014C114.367 87.4014 125.292 82.5148 133.198 74.599C133.714 74.0826 134.221 73.5463 134.717 73C141.729 80.7469 146 91.0265 146 102.299Z" fill="#4DCFA3"/>
  <path d="M134.717 73C134.221 73.5463 133.714 74.0826 133.198 74.599C125.292 82.5148 114.367 87.4014 102.299 87.4014C95.3072 87.4014 88.7025 85.7626 82.8426 82.8426C81.0548 79.2472 78.7804 75.9399 76.1187 73C78.7804 70.0601 81.0548 66.7528 82.8426 63.1574C88.7025 60.2374 95.3072 58.5986 102.299 58.5986C114.367 58.5986 125.292 63.4852 133.198 71.4009C133.714 71.9174 134.221 72.4537 134.717 73Z" fill="#22529A"/>
  <path d="M146 43.7007C146 54.9735 141.729 65.2531 134.717 73C134.221 72.4537 133.714 71.9174 133.198 71.4009C125.292 63.4852 114.367 58.5986 102.299 58.5986C95.3072 58.5986 88.7025 60.2374 82.8426 63.1574C85.7626 57.2975 87.4014 50.6928 87.4014 43.7007C87.4014 31.6333 82.5148 20.7082 74.599 12.8023C74.0826 12.2858 73.5463 11.7793 73 11.2827C80.7469 4.27075 91.0265 0 102.299 0C114.367 0 125.292 4.88653 133.198 12.8023C141.113 20.7082 146 31.6333 146 43.7007Z" fill="#695CD8"/>
  <path d="M58.5986 43.7007C58.5986 50.6928 60.2374 57.2975 63.1574 63.1574C57.2975 60.2374 50.6928 58.5986 43.7007 58.5986C30.8388 58.5986 19.278 64.1506 11.2827 73C4.27075 65.2531 0 54.9735 0 43.7007C0 19.566 19.566 0 43.7007 0C54.9735 0 65.2531 4.27075 73 11.2827C64.1506 19.278 58.5986 30.8388 58.5986 43.7007Z" fill="#D63E6D"/>
  <path d="M87.4014 43.7007C87.4014 50.6928 85.7626 57.2975 82.8426 63.1574C79.2472 64.9452 75.9399 67.2196 73 69.8814C70.0601 67.2196 66.7528 64.9452 63.1574 63.1574C60.2374 57.2975 58.5986 50.6928 58.5986 43.7007C58.5986 30.8388 64.1506 19.278 73 11.2827C73.5463 11.7793 74.0826 12.2858 74.599 12.8023C82.5148 20.7082 87.4014 31.6333 87.4014 43.7007Z" fill="#5E1967"/>
</svg>
